<svg id="Layer_1" data-name="Layer 1" xmlns="http://www.w3.org/2000/svg" viewBox="0 0 398 398"><title>cv</title><path d="M549.2,120A64.87,64.87,0,0,1,614,184.8V393.2A64.87,64.87,0,0,1,549.2,458H340.8A64.87,64.87,0,0,1,276,393.2V184.8A64.87,64.87,0,0,1,340.8,120H549.2m0-30H340.8A94.8,94.8,0,0,0,246,184.8V393.2A94.8,94.8,0,0,0,340.8,488H549.2A94.8,94.8,0,0,0,644,393.2V184.8A94.8,94.8,0,0,0,549.2,90Z" transform="translate(-246 -90)"/><path d="M437.66,224.65,419.08,247c-8.77-7.15-19.39-11.77-31.85-11.77-20.19,0-36.58,16.39-36.58,55.62,0,38.54,15.47,55,37.27,55,15.93,0,25.74-7.16,34.62-14.31l17.19,21.92c-12,11.89-29.19,21.58-53.88,21.58-43.5,0-74.31-29.31-74.31-84.23,0-53.54,32.42-83.66,74.77-83.66C409.27,207.22,424.27,213.57,437.66,224.65Z" transform="translate(-246 -90)"/><path d="M542.19,211.26H581L534.81,371.19H488L442,211.26h40.15l29.89,130.39Z" transform="translate(-246 -90)"/></svg>