<?xml version="1.0" encoding="UTF-8" standalone="no"?>
<!-- Generator: Adobe Illustrator 16.0.0, SVG Export Plug-In . SVG Version: 6.00 Build 0)  -->

<svg
   xmlns:dc="http://purl.org/dc/elements/1.1/"
   xmlns:cc="http://creativecommons.org/ns#"
   xmlns:rdf="http://www.w3.org/1999/02/22-rdf-syntax-ns#"
   xmlns:svg="http://www.w3.org/2000/svg"
   xmlns="http://www.w3.org/2000/svg"
   xmlns:sodipodi="http://sodipodi.sourceforge.net/DTD/sodipodi-0.dtd"
   xmlns:inkscape="http://www.inkscape.org/namespaces/inkscape"
   version="1.1"
   id="Capa_1"
   x="0px"
   y="0px"
   width="56"
   height="56"
   viewBox="0 0 55.999999 55.999999"
   xml:space="preserve"
   inkscape:version="0.91 r13725"
   sodipodi:docname="linkedin.svg"><metadata
     id="metadata40"><rdf:RDF><cc:Work
         rdf:about=""><dc:format>image/svg+xml</dc:format><dc:type
           rdf:resource="http://purl.org/dc/dcmitype/StillImage" /><dc:title></dc:title></cc:Work></rdf:RDF></metadata><defs
     id="defs38" /><sodipodi:namedview
     pagecolor="#ffffff"
     bordercolor="#666666"
     borderopacity="1"
     objecttolerance="10"
     gridtolerance="10"
     guidetolerance="10"
     inkscape:pageopacity="0"
     inkscape:pageshadow="2"
     inkscape:window-width="1920"
     inkscape:window-height="1032"
     id="namedview36"
     showgrid="false"
     inkscape:zoom="8.7790065"
     inkscape:cx="10.470489"
     inkscape:cy="27.029654"
     inkscape:window-x="1680"
     inkscape:window-y="22"
     inkscape:window-maximized="1"
     inkscape:current-layer="Capa_1" /><g
     id="g3"
     style="fill:#ffffff;fill-opacity:1;fill-rule:nonzero;stroke:#ffffff;stroke-width:0.96899998;stroke-miterlimit:4;stroke-dasharray:none;stroke-opacity:1"
     transform="matrix(0.13,0,0,0.13,0.17768975,0.47707081)"><path
       id="LinkedIn"
       d="m 430.117,261.543 0,159.017 -92.188,0 0,-148.367 c 0,-37.271 -13.334,-62.707 -46.703,-62.707 -25.473,0 -40.632,17.142 -47.301,33.724 -2.432,5.928 -3.058,14.179 -3.058,22.477 l 0,154.873 -92.219,0 c 0,0 1.242,-251.285 0,-277.32 l 92.21,0 0,39.309 c -0.187,0.294 -0.43,0.611 -0.606,0.896 l 0.606,0 0,-0.896 c 12.251,-18.869 34.13,-45.824 83.102,-45.824 60.673,-0.001 106.157,39.636 106.157,124.818 z M 52.183,9.558 C 20.635,9.558 0,30.251 0,57.463 c 0,26.619 20.038,47.94 50.959,47.94 l 0.616,0 c 32.159,0 52.159,-21.317 52.159,-47.94 C 103.128,30.251 83.734,9.558 52.183,9.558 Z M 5.477,420.56 l 92.184,0 0,-277.32 -92.184,0 0,277.32 z"
       style="fill:#ffffff;fill-opacity:1;fill-rule:nonzero;stroke:#ffffff;stroke-width:0.96899998;stroke-miterlimit:4;stroke-dasharray:none;stroke-opacity:1"
       inkscape:connector-curvature="0" /></g><g
     id="g6"
     transform="translate(0,-374.117)" /><g
     id="g8"
     transform="translate(0,-374.117)" /><g
     id="g10"
     transform="translate(0,-374.117)" /><g
     id="g12"
     transform="translate(0,-374.117)" /><g
     id="g14"
     transform="translate(0,-374.117)" /><g
     id="g16"
     transform="translate(0,-374.117)" /><g
     id="g18"
     transform="translate(0,-374.117)" /><g
     id="g20"
     transform="translate(0,-374.117)" /><g
     id="g22"
     transform="translate(0,-374.117)" /><g
     id="g24"
     transform="translate(0,-374.117)" /><g
     id="g26"
     transform="translate(0,-374.117)" /><g
     id="g28"
     transform="translate(0,-374.117)" /><g
     id="g30"
     transform="translate(0,-374.117)" /><g
     id="g32"
     transform="translate(0,-374.117)" /><g
     id="g34"
     transform="translate(0,-374.117)" /><path
     style="fill:#ffffff;fill-opacity:1;fill-rule:nonzero;stroke:#ffffff;stroke-width:0.12596999;stroke-linecap:round;stroke-linejoin:bevel;stroke-miterlimit:4;stroke-dasharray:none;stroke-dashoffset:0;stroke-opacity:1"
     d="m 0.93586975,37.082581 0,-17.88813 5.92322005,0 5.9232202,0 0,17.88813 0,17.88813 -5.9232202,0 -5.92322005,0 0,-17.88813 z"
     id="path3368"
     inkscape:connector-curvature="0" /><path
     style="fill:#ffffff;fill-opacity:1;fill-rule:nonzero;stroke:#ffffff;stroke-width:0.12596999;stroke-linecap:round;stroke-linejoin:bevel;stroke-miterlimit:4;stroke-dasharray:none;stroke-dashoffset:0;stroke-opacity:1"
     d="m 4.0159398,13.489551 c -1.31443,-0.5943 -2.48902,-1.69321 -3.14569005,-2.943 -0.65611,-1.2487199 -0.69339,-3.8886202 -0.0719,-5.0939702 1.12241005,-2.17703 2.95000005,-3.33576 5.52662005,-3.50402 4.1516202,-0.2711 6.8433702,1.86557 7.1139302,5.64692 0.10242,1.4314203 0.0378,1.7951303 -0.52182,2.9390402 -1.14994,2.35038 -3.1206199,3.45173 -6.1593902,3.44229 -1.16871,-0.004 -1.99803,-0.15102 -2.74171,-0.48726 z"
     id="path3370"
     inkscape:connector-curvature="0" /><path
     style="fill:#ffffff;fill-opacity:1;fill-rule:nonzero;stroke:#ffffff;stroke-width:0.12596999;stroke-linecap:round;stroke-linejoin:bevel;stroke-miterlimit:4;stroke-dasharray:none;stroke-dashoffset:0;stroke-opacity:1"
     d="m 19.65325,37.082581 0,-17.88813 5.80475,0 5.80476,0 0.0111,2.66545 0.0111,2.66545 0.63014,-0.82925 c 2.84247,-3.74061 5.83087,-5.22769 10.50727,-5.22859 6.46213,-10e-4 10.86541,3.34639 12.80081,9.73192 0.52488,1.73176 0.54014,2.08166 0.62248,14.27328 l 0.0844,12.498 -5.81814,0 -5.81815,0 -0.002,-9.89178 c -0.002,-9.49604 -0.1466,-12.10524 -0.76021,-13.68264 -0.96338,-2.47653 -2.78953,-3.70202 -5.51651,-3.70202 -2.74593,0 -4.75987,1.33895 -6.09187,4.05013 -0.51813,1.05463 -0.52893,1.26772 -0.61572,12.14988 l -0.0883,11.07643 -5.78302,0 -5.78303,0 0,-17.88813 z"
     id="path3372"
     inkscape:connector-curvature="0" /></svg>